<svg viewBox="0 0 330 200" xmlns="http://www.w3.org/2000/svg"><g><g><g><g><g><line x1="50" y1="177" x2="45" y2="177" style="visibility: inherit;" fill="rgb(0, 0, 0)" stroke="rgb(204, 204, 204)" stroke-width="1px"></line><line x1="50" y1="160.90909090909093" x2="45" y2="160.90909090909093" style="visibility: inherit;" fill="rgb(0, 0, 0)" stroke="rgb(204, 204, 204)" stroke-width="1px"></line><line x1="50" y1="144.8181818181818" x2="45" y2="144.8181818181818" style="visibility: inherit;" fill="rgb(0, 0, 0)" stroke="rgb(204, 204, 204)" stroke-width="1px"></line><line x1="50" y1="128.72727272727272" x2="45" y2="128.72727272727272" style="visibility: inherit;" fill="rgb(0, 0, 0)" stroke="rgb(204, 204, 204)" stroke-width="1px"></line><line x1="50" y1="112.63636363636364" x2="45" y2="112.63636363636364" style="visibility: inherit;" fill="rgb(0, 0, 0)" stroke="rgb(204, 204, 204)" stroke-width="1px"></line><line x1="50" y1="96.54545454545458" x2="45" y2="96.54545454545458" style="visibility: inherit;" fill="rgb(0, 0, 0)" stroke="rgb(204, 204, 204)" stroke-width="1px"></line><line x1="50" y1="80.45454545454547" x2="45" y2="80.45454545454547" style="visibility: inherit;" fill="rgb(0, 0, 0)" stroke="rgb(204, 204, 204)" stroke-width="1px"></line><line x1="50" y1="64.36363636363636" x2="45" y2="64.36363636363636" style="visibility: inherit;" fill="rgb(0, 0, 0)" stroke="rgb(204, 204, 204)" stroke-width="1px"></line><line x1="50" y1="48.27272727272729" x2="45" y2="48.27272727272729" style="visibility: inherit;" fill="rgb(0, 0, 0)" stroke="rgb(204, 204, 204)" stroke-width="1px"></line><line x1="50" y1="32.181818181818194" x2="45" y2="32.181818181818194" style="visibility: inherit;" fill="rgb(0, 0, 0)" stroke="rgb(204, 204, 204)" stroke-width="1px"></line><line x1="50" y1="16.090909090909115" x2="45" y2="16.090909090909115" style="visibility: inherit;" fill="rgb(0, 0, 0)" stroke="rgb(204, 204, 204)" stroke-width="1px"></line><line x1="50" y1="0" x2="45" y2="0" style="visibility: inherit;" fill="rgb(0, 0, 0)" stroke="rgb(204, 204, 204)" stroke-width="1px"></line></g><g transform="translate(40, 0)"><text x="0" y="177" dx="0em" dy="0.3em" style="text-anchor: end; visibility: hidden; font-family: Roboto, sans-serif; font-size: 12px; font-weight: 200;" fill="rgb(33, 33, 33)" stroke="none" stroke-width="1px">0.45</text><text x="0" y="160.90909090909093" dx="0em" dy="0.3em" style="text-anchor: end; visibility: inherit; font-family: Roboto, sans-serif; font-size: 12px; font-weight: 200;" fill="rgb(33, 33, 33)" stroke="none" stroke-width="1px">0.5</text><text x="0" y="144.8181818181818" dx="0em" dy="0.3em" style="text-anchor: end; visibility: hidden; font-family: Roboto, sans-serif; font-size: 12px; font-weight: 200;" fill="rgb(33, 33, 33)" stroke="none" stroke-width="1px">0.55</text><text x="0" y="128.72727272727272" dx="0em" dy="0.3em" style="text-anchor: end; visibility: inherit; font-family: Roboto, sans-serif; font-size: 12px; font-weight: 200;" fill="rgb(33, 33, 33)" stroke="none" stroke-width="1px">0.6</text><text x="0" y="112.63636363636364" dx="0em" dy="0.3em" style="text-anchor: end; visibility: hidden; font-family: Roboto, sans-serif; font-size: 12px; font-weight: 200;" fill="rgb(33, 33, 33)" stroke="none" stroke-width="1px">0.65</text><text x="0" y="96.54545454545458" dx="0em" dy="0.3em" style="text-anchor: end; visibility: inherit; font-family: Roboto, sans-serif; font-size: 12px; font-weight: 200;" fill="rgb(33, 33, 33)" stroke="none" stroke-width="1px">0.7</text><text x="0" y="80.45454545454547" dx="0em" dy="0.3em" style="text-anchor: end; visibility: hidden; font-family: Roboto, sans-serif; font-size: 12px; font-weight: 200;" fill="rgb(33, 33, 33)" stroke="none" stroke-width="1px">0.75</text><text x="0" y="64.36363636363636" dx="0em" dy="0.3em" style="text-anchor: end; visibility: inherit; font-family: Roboto, sans-serif; font-size: 12px; font-weight: 200;" fill="rgb(33, 33, 33)" stroke="none" stroke-width="1px">0.8</text><text x="0" y="48.27272727272729" dx="0em" dy="0.3em" style="text-anchor: end; visibility: hidden; font-family: Roboto, sans-serif; font-size: 12px; font-weight: 200;" fill="rgb(33, 33, 33)" stroke="none" stroke-width="1px">0.85</text><text x="0" y="32.181818181818194" dx="0em" dy="0.3em" style="text-anchor: end; visibility: inherit; font-family: Roboto, sans-serif; font-size: 12px; font-weight: 200;" fill="rgb(33, 33, 33)" stroke="none" stroke-width="1px">0.9</text><text x="0" y="16.090909090909115" dx="0em" dy="0.3em" style="text-anchor: end; visibility: hidden; font-family: Roboto, sans-serif; font-size: 12px; font-weight: 200;" fill="rgb(33, 33, 33)" stroke="none" stroke-width="1px">0.95</text><text x="0" y="0" dx="0em" dy="0.3em" style="text-anchor: end; visibility: hidden; font-family: Roboto, sans-serif; font-size: 12px; font-weight: 200;" fill="rgb(33, 33, 33)" stroke="none" stroke-width="1px">1</text></g><line x1="50" y1="0" x2="50" y2="177" fill="rgb(0, 0, 0)" stroke="rgb(204, 204, 204)" stroke-width="1px"></line></g></g><g transform="translate(50, 0)" clip-path="url(#clip_0)"><clipPath id="clip_0"><rect width="280" height="177"></rect></clipPath><g><g><g><line x1="0" y1="0" x2="0" y2="177" fill="rgb(0, 0, 0)" stroke="rgb(66, 66, 66)" stroke-width="1px" opacity="0.25"></line><line x1="35" y1="0" x2="35" y2="177" fill="rgb(0, 0, 0)" stroke="rgb(66, 66, 66)" stroke-width="1px" opacity="0.25"></line><line x1="70" y1="0" x2="70" y2="177" fill="rgb(0, 0, 0)" stroke="rgb(66, 66, 66)" stroke-width="1px" opacity="0.25"></line><line x1="105" y1="0" x2="105" y2="177" fill="rgb(0, 0, 0)" stroke="rgb(66, 66, 66)" stroke-width="1px" opacity="0.25"></line><line x1="140" y1="0" x2="140" y2="177" fill="rgb(0, 0, 0)" stroke="rgb(66, 66, 66)" stroke-width="1px" opacity="0.25"></line><line x1="175" y1="0" x2="175" y2="177" fill="rgb(0, 0, 0)" stroke="rgb(66, 66, 66)" stroke-width="1px" opacity="0.25"></line><line x1="210" y1="0" x2="210" y2="177" fill="rgb(0, 0, 0)" stroke="rgb(66, 66, 66)" stroke-width="1px" opacity="0.25"></line><line x1="245" y1="0" x2="245" y2="177" fill="rgb(0, 0, 0)" stroke="rgb(66, 66, 66)" stroke-width="1px" opacity="0.25"></line><line x1="280" y1="0" x2="280" y2="177" fill="rgb(0, 0, 0)" stroke="rgb(66, 66, 66)" stroke-width="1px" opacity="0.25"></line></g><g><line x1="0" y1="177" x2="280" y2="177" fill="rgb(0, 0, 0)" stroke="rgb(66, 66, 66)" stroke-width="1px" opacity="0.25"></line><line x1="0" y1="160.90909090909093" x2="280" y2="160.90909090909093" fill="rgb(0, 0, 0)" stroke="rgb(66, 66, 66)" stroke-width="1px" opacity="0.25"></line><line x1="0" y1="144.8181818181818" x2="280" y2="144.8181818181818" fill="rgb(0, 0, 0)" stroke="rgb(66, 66, 66)" stroke-width="1px" opacity="0.25"></line><line x1="0" y1="128.72727272727272" x2="280" y2="128.72727272727272" fill="rgb(0, 0, 0)" stroke="rgb(66, 66, 66)" stroke-width="1px" opacity="0.25"></line><line x1="0" y1="112.63636363636364" x2="280" y2="112.63636363636364" fill="rgb(0, 0, 0)" stroke="rgb(66, 66, 66)" stroke-width="1px" opacity="0.25"></line><line x1="0" y1="96.54545454545458" x2="280" y2="96.54545454545458" fill="rgb(0, 0, 0)" stroke="rgb(66, 66, 66)" stroke-width="1px" opacity="0.25"></line><line x1="0" y1="80.45454545454547" x2="280" y2="80.45454545454547" fill="rgb(0, 0, 0)" stroke="rgb(66, 66, 66)" stroke-width="1px" opacity="0.25"></line><line x1="0" y1="64.36363636363636" x2="280" y2="64.36363636363636" fill="rgb(0, 0, 0)" stroke="rgb(66, 66, 66)" stroke-width="1px" opacity="0.25"></line><line x1="0" y1="48.27272727272729" x2="280" y2="48.27272727272729" fill="rgb(0, 0, 0)" stroke="rgb(66, 66, 66)" stroke-width="1px" opacity="0.25"></line><line x1="0" y1="32.181818181818194" x2="280" y2="32.181818181818194" fill="rgb(0, 0, 0)" stroke="rgb(66, 66, 66)" stroke-width="1px" opacity="0.25"></line><line x1="0" y1="16.090909090909115" x2="280" y2="16.090909090909115" fill="rgb(0, 0, 0)" stroke="rgb(66, 66, 66)" stroke-width="1px" opacity="0.25"></line><line x1="0" y1="0" x2="280" y2="0" fill="rgb(0, 0, 0)" stroke="rgb(66, 66, 66)" stroke-width="1px" opacity="0.25"></line></g></g></g><g><g><line x1="0" y1="321.8181818181818" x2="280" y2="321.8181818181818" fill="rgb(0, 0, 0)" stroke="rgb(153, 153, 153)" stroke-width="1.5px"></line></g></g><g><g><line x1="35" y1="0" x2="35" y2="177" fill="rgb(0, 0, 0)" stroke="rgb(153, 153, 153)" stroke-width="1.5px"></line></g></g><g><g><g><g><g><path stroke="rgb(0, 119, 187)" stroke-width="2px" d="M35,163.35491212931544L38.5,163.35491212931544L42,163.35491212931547L45.5,163.3549121293155L49,163.35491212931547L52.5,163.35491212931544L56,163.35491212931544L59.5,163.35491212931544L63,163.3028961473475L66.5,162.28774403469927L70,159.58961969648078L73.5,155.16464943600417L77,149.0872160550968L80.5,141.09144517800263L84,131.37829699989595L87.5,119.86198033028657L91,108.78280636353435L94.5,97.68208378787885L98,87.93273041137569L101.5,79.81781578995819L105,73.01810729692328L108.5,67.57384670060901L112,63.53496873963454L115.5,60.10757940419334L119,57.1243245270948L122.5,54.459022936393644L126,52.164724322509855L129.5,50.35047008854704L133,48.695516137397036L136.5,47.34210928502418L140,46.04090489253275L143.5,44.82250603296505L147,43.756774025028946L150.5,42.937117451544644L154,42.05914666960116L157.5,41.48087242884891L161,40.850706928903854L164.5,40.42111585052699L168,40.06037764286326L171.5,39.76670088397591L175,39.487511267383105L178.5,39.29425544357272L182,39.101060441880215L185.5,38.95940138691031L189,38.79716444649259L192.5,38.674080228265524L196,38.44575435518473L199.5,38.18003321592413L203,37.99485847838566L206.5,37.88375363586414L210,37.68835744219316L213.5,37.57111972599116L217,37.423543261569876L220.5,37.36074710964626L224,37.220085857063L227.5,37.00696349009834L231,36.77610650849045L234.5,36.50886670411102L238,36.2970310407688L241.5,36.144179916034545L245,36.052469241194046L248.5,35.920209001589576L252,35.78936107711231L255.5,35.63361848772577L259,35.5659149880795L262.5,35.60253439573519" style="fill: none;" fill="none"></path></g><g><path stroke="rgb(255, 112, 67)" stroke-width="2px" d="M35,160.29763080857018L38.5,160.29763080857018L42,160.29763080857018L45.5,160.2976308085702L49,160.2976308085702L52.5,160.29763080857018L56,160.29763080857018L59.5,160.2976308085702L63,160.2911278419674L66.5,159.8663591785951L70,157.5395545188957L73.5,153.59452488577796L77,148.06218198457532L80.5,140.59269557891017L84,131.20793493148463L87.5,120.45510600805572L91,109.02920208728601L94.5,98.10026476282638L98,88.12569606023217L101.5,79.28993307409688L105,71.9032536990947L108.5,65.57903454276344L112,60.14326682856093L115.5,55.65248556166874L119,51.883152746409124L122.5,48.83632234764311L126,46.2036780875906L129.5,43.94184016989656L133,41.9990315550011L136.5,40.311999162861056L140,38.73337797602399L143.5,37.213373678289344L147,35.75428153087595L150.5,34.44114997477768L154,33.27352397136387L157.5,32.25113050393407L161,31.257947340569856L164.5,30.423898509818144L168,29.61451852837357L171.5,28.69122191311715L175,27.911972199410933L178.5,27.16765884557789L182,26.476486793228347L185.5,25.836511816745787L189,25.22725508574221L192.5,24.61711700695709L196,23.929216284789806L199.5,23.323383592007882L203,22.760354285168752L206.5,22.165085470238584L210,21.621269353471217L213.5,21.101887423918203L217,20.635790596786673L220.5,20.208094590046787L224,19.76482215819155L227.5,19.299329007902486L231,18.8526905849643L234.5,18.430232189057822L238,17.957922838034573L241.5,17.565116234309336L245,17.142777444262702L248.5,16.754211123137765L252,16.405220578412607L255.5,16.047788341116068L259,15.685291088276717L262.5,15.332629689476093" style="fill: none;" fill="none"></path></g></g></g></g><g opacity="0.2"><g><g><g><path stroke="rgb(0, 119, 187)" stroke-width="2px" d="M35,163.35491212931547L38.5,163.35491212931547L42,163.35491212931547L45.5,163.35491212931547L49,163.35491212931547L52.5,163.35491212931547L56,163.35491212931547L59.5,163.35491212931547L63,163.22618267752907L66.5,160.78036145730454L70,155.56690497831866L73.5,148.55127453804016L77,139.99090985818344L80.5,129.11345340988854L84,116.8199921738018L87.5,102.59562752463601L91,92.16873374852268L94.5,81.03381839665501L98,73.3101855624806L101.5,67.64618559317157L105,62.81891746954485L108.5,59.40763495185159L112,57.476731538772604L115.5,54.966536001725636L119,52.649463415145895L122.5,50.4610819166357L126,48.723282272165484L129.5,47.62909152291039L133,46.21308673511854L136.5,45.31199975447222L140,44.089098735289156L143.5,42.994907986034065L147,42.158176140351735L150.5,41.7076326500286L154,40.74219053441829L157.5,40.6134610826319L161,39.90545868873598L164.5,39.77672923694959L168,39.51927033337681L171.5,39.326185746626436L175,39.06872684305365L178.5,39.004371708089664L182,38.81126793948087L185.5,38.74691280451688L189,38.55380903590812L192.5,38.48945390094413L196,38.103265545584954L199.5,37.78145150704819L203,37.7170963720842L206.5,37.7170963720842L210,37.395263151689015L213.5,37.395263151689015L217,37.202178564938635L220.5,37.26655288176104L224,37.009093978188275L227.5,36.68727993965151L231,36.42982103607873L234.5,36.10800699754196L238,35.97927754575557L241.5,35.91490322893317L245,35.91490322893317L248.5,35.72181864218279L252,35.5930891903964L255.5,35.40000460364604L259,35.46435973861003L262.5,35.6574635072188" style="fill: none;" fill="none"></path></g><g><path stroke="rgb(255, 112, 67)" stroke-width="2px" d="M35,160.29763080857018L38.5,160.29763080857018L42,160.29763080857018L45.5,160.29763080857018L49,160.29763080857018L52.5,160.29763080857018L56,160.29763080857018L59.5,160.29763080857018L63,160.28153722936457L66.5,159.2356272177263L70,154.0704514763572L73.5,147.69844911315224L77,139.78173169222745L80.5,129.4030994718725L84,117.14182539419696L87.5,104.33344635096464L91,91.89518126574433L94.5,81.70963363213974L98,73.1653625314886L101.5,66.03709621862933L105,60.82363973964347L108.5,56.09291390939194L112,51.98972257700834L115.5,48.916366858915865L119,46.22918031432414L122.5,44.26608974283393L126,42.254718433726936L129.5,40.5490867658095L133,39.084820422259256L136.5,37.78145150704819L140,36.365446719256326L143.5,34.93336753411728L147,33.56564348394222L150.5,32.47145273468713L154,31.522085016424015L157.5,30.717540329152897L161,29.768172610889803L164.5,29.172825271433062L168,28.400448560714743L171.5,27.306276993318043L175,26.74309763041412L178.5,26.051188815723787L182,25.43972871520305L185.5,24.876549352299104L189,24.313369989395163L192.5,23.70190988887442L196,22.897365201603304L199.5,22.414634552868954L203,21.915810324929L206.5,21.27218224785546L210,20.805545178326717L213.5,20.32281452959235L217,19.93664535609161L220.5,19.566550579938045L224,19.099913510409284L227.5,18.601089282469328L231,18.18273295055738L234.5,17.79654459519821L238,17.24945881149987L241.5,16.975906328721486L245,16.50926925919274L248.5,16.171361641450368L252,15.88173476132479L255.5,15.511639985171225L259,15.14154520901766L262.5,14.803637591275308" style="fill: none;" fill="none"></path></g></g></g></g></g></g><g transform="translate(50, 177)" clip-path="url(#clip_1)"><clipPath id="clip_1"><rect width="280" height="23"></rect></clipPath><g><g><line x1="0" y1="0" x2="0" y2="5" style="visibility: inherit;" fill="rgb(0, 0, 0)" stroke="rgb(204, 204, 204)" stroke-width="1px"></line><line x1="35" y1="0" x2="35" y2="5" style="visibility: inherit;" fill="rgb(0, 0, 0)" stroke="rgb(204, 204, 204)" stroke-width="1px"></line><line x1="70" y1="0" x2="70" y2="5" style="visibility: inherit;" fill="rgb(0, 0, 0)" stroke="rgb(204, 204, 204)" stroke-width="1px"></line><line x1="105" y1="0" x2="105" y2="5" style="visibility: inherit;" fill="rgb(0, 0, 0)" stroke="rgb(204, 204, 204)" stroke-width="1px"></line><line x1="140" y1="0" x2="140" y2="5" style="visibility: inherit;" fill="rgb(0, 0, 0)" stroke="rgb(204, 204, 204)" stroke-width="1px"></line><line x1="175" y1="0" x2="175" y2="5" style="visibility: inherit;" fill="rgb(0, 0, 0)" stroke="rgb(204, 204, 204)" stroke-width="1px"></line><line x1="210" y1="0" x2="210" y2="5" style="visibility: inherit;" fill="rgb(0, 0, 0)" stroke="rgb(204, 204, 204)" stroke-width="1px"></line><line x1="245" y1="0" x2="245" y2="5" style="visibility: inherit;" fill="rgb(0, 0, 0)" stroke="rgb(204, 204, 204)" stroke-width="1px"></line><line x1="280" y1="0" x2="280" y2="5" style="visibility: inherit;" fill="rgb(0, 0, 0)" stroke="rgb(204, 204, 204)" stroke-width="1px"></line></g><g transform="translate(0, 8)"><text x="0" y="0" dx="0em" dy="0.95em" style="text-anchor: middle; visibility: hidden; font-family: Roboto, sans-serif; font-size: 12px; font-weight: 200;" fill="rgb(33, 33, 33)" stroke="none" stroke-width="1px">-10</text><text x="35" y="0" dx="0em" dy="0.95em" style="text-anchor: middle; visibility: inherit; font-family: Roboto, sans-serif; font-size: 12px; font-weight: 200;" fill="rgb(33, 33, 33)" stroke="none" stroke-width="1px">0</text><text x="70" y="0" dx="0em" dy="0.95em" style="text-anchor: middle; visibility: inherit; font-family: Roboto, sans-serif; font-size: 12px; font-weight: 200;" fill="rgb(33, 33, 33)" stroke="none" stroke-width="1px">10</text><text x="105" y="0" dx="0em" dy="0.95em" style="text-anchor: middle; visibility: inherit; font-family: Roboto, sans-serif; font-size: 12px; font-weight: 200;" fill="rgb(33, 33, 33)" stroke="none" stroke-width="1px">20</text><text x="140" y="0" dx="0em" dy="0.95em" style="text-anchor: middle; visibility: inherit; font-family: Roboto, sans-serif; font-size: 12px; font-weight: 200;" fill="rgb(33, 33, 33)" stroke="none" stroke-width="1px">30</text><text x="175" y="0" dx="0em" dy="0.95em" style="text-anchor: middle; visibility: inherit; font-family: Roboto, sans-serif; font-size: 12px; font-weight: 200;" fill="rgb(33, 33, 33)" stroke="none" stroke-width="1px">40</text><text x="210" y="0" dx="0em" dy="0.95em" style="text-anchor: middle; visibility: inherit; font-family: Roboto, sans-serif; font-size: 12px; font-weight: 200;" fill="rgb(33, 33, 33)" stroke="none" stroke-width="1px">50</text><text x="245" y="0" dx="0em" dy="0.95em" style="text-anchor: middle; visibility: inherit; font-family: Roboto, sans-serif; font-size: 12px; font-weight: 200;" fill="rgb(33, 33, 33)" stroke="none" stroke-width="1px">60</text><text x="280" y="0" dx="0em" dy="0.95em" style="text-anchor: middle; visibility: hidden; font-family: Roboto, sans-serif; font-size: 12px; font-weight: 200;" fill="rgb(33, 33, 33)" stroke="none" stroke-width="1px">70</text></g><line x1="0" y1="0" x2="280" y2="0" fill="rgb(0, 0, 0)" stroke="rgb(204, 204, 204)" stroke-width="1px"></line></g></g></g></g></svg>